<svg xmlns="http://www.w3.org/2000/svg" width="368" height="78">
  <path fill="#13FFE2" fill-rule="evenodd" d="M12.2 29.2V56l4.8 1.2v.8H.6v-.8L5.4 56V4L.6 2.8V2H33c-.107.48-.187 1.04-.24 1.68a36.875 36.875 0 0 0-.12 2.04c-.027.773-.04 1.667-.04 2.68 0 .747.013 1.48.04 2.2.027.72.067 1.4.12 2.04.053.747.133 1.467.24 2.16h-.8c-1.387-1.387-2.533-3.04-3.44-4.96s-1.36-4-1.36-6.24H12.2v24h7.6l3.6-7.2h.8v16h-.8l-3.6-7.2h-7.6zM42.6 56V4l-4.8-1.2V2H49v54l4.8 1.2v.8h-16v-.8l4.8-1.2zm46-32.8V56l4.8 1.2v.8H82.2v-4.8a12.444 12.444 0 0 1-2.24 3.04c-.747.747-1.693 1.427-2.84 2.04-1.147.613-2.52.92-4.12.92s-3.08-.293-4.44-.88A11.001 11.001 0 0 1 65 55.88c-1.013-1.04-1.8-2.293-2.36-3.76-.56-1.467-.84-3.107-.84-4.92v-24L57 22v-.8h15.6v.8l-4.4 1.2v24c0 3.787.6 6.467 1.8 8.04 1.2 1.573 2.6 2.36 4.2 2.36 1.28 0 2.413-.373 3.4-1.12A13.085 13.085 0 0 0 80.12 54c.8-1.013 1.493-2.213 2.08-3.6V23.2L77.8 22v-.8h15.6v.8l-4.8 1.2zM110.2 56l4.8 1.2v.8H99v-.8l4.8-1.2V23.2L99 22v-.8h11.2v9.6c.693-1.973 1.52-3.76 2.48-5.36a17.475 17.475 0 0 1 3.12-3.76c1.227-1.12 2.693-1.68 4.4-1.68.587 0 1.147.04 1.68.12.533.08 1.013.173 1.44.28.48.16.907.293 1.28.4l-2.4 6c-.32-.16-.667-.347-1.04-.56a7.083 7.083 0 0 0-1.16-.44c-.453-.133-.92-.2-1.4-.2-1.387 0-2.613.373-3.68 1.12-1.067.747-1.947 1.573-2.64 2.48a14.112 14.112 0 0 0-2.08 3.6V56zm28.8 0l4.8 1.2v.8h-16v-.8l4.8-1.2V23.2l-4.8-1.2v-.8H139v9.6c.693-1.973 1.52-3.76 2.48-5.36a17.475 17.475 0 0 1 3.12-3.76c1.227-1.12 2.693-1.68 4.4-1.68.587 0 1.147.04 1.68.12.533.08 1.013.173 1.44.28.48.16.907.293 1.28.4l-2.4 6c-.32-.16-.667-.347-1.04-.56a7.083 7.083 0 0 0-1.16-.44c-.453-.133-.92-.2-1.4-.2-1.387 0-2.613.373-3.68 1.12-1.067.747-1.947 1.573-2.64 2.48a14.112 14.112 0 0 0-2.08 3.6V56zm32 8.8c-.853 2.507-1.68 4.6-2.48 6.28-.8 1.68-1.64 3.04-2.52 4.08-.88 1.04-1.787 1.773-2.72 2.2-.933.427-1.96.64-3.08.64a8.276 8.276 0 0 1-1.68-.16 2.856 2.856 0 0 1-.72-.24l-1.2-6c.213.107.453.187.72.24A8.276 8.276 0 0 0 159 72c3.2 0 5.533-.6 7-1.8 1.467-1.2 2.6-3 3.4-5.4l2.24-6.8-13.84-34.8L153 22v-.8h16v.8l-4.4 1.2 10.16 25.52L183 24l-5.2-2v-.8h12v.8l-5.2 2L171 64.8zm26.4-52.4c0 2.187.64 4.067 1.92 5.64 1.28 1.573 2.88 3.027 4.8 4.36a79.826 79.826 0 0 0 6.28 3.92 40.469 40.469 0 0 1 6.28 4.36 22.02 22.02 0 0 1 4.8 5.72c1.28 2.187 1.92 4.853 1.92 8 0 2.08-.373 4.027-1.12 5.84a13.991 13.991 0 0 1-3.16 4.72c-1.36 1.333-2.973 2.373-4.84 3.12-1.867.747-3.893 1.12-6.08 1.12-2.027 0-3.76-.2-5.2-.6-1.44-.4-2.64-.867-3.6-1.4-1.12-.587-2.053-1.253-2.8-2-.427.8-1 1.547-1.72 2.24-.72.693-1.48 1.147-2.28 1.36h-1.2c.053-.747.107-1.547.16-2.4.053-.693.107-1.467.16-2.32.053-.853.08-1.68.08-2.48 0-.907-.027-1.8-.08-2.68-.053-.88-.107-1.693-.16-2.44-.053-.853-.107-1.68-.16-2.48h1.2c1.227 4.427 3 7.8 5.32 10.12 2.32 2.32 5.48 3.48 9.48 3.48 3.2 0 5.8-1.027 7.8-3.08s3-4.893 3-8.52c0-2.187-.64-4.067-1.92-5.64-1.28-1.573-2.88-3.027-4.8-4.36a79.826 79.826 0 0 0-6.28-3.92 40.469 40.469 0 0 1-6.28-4.36 22.02 22.02 0 0 1-4.8-5.72c-1.28-2.187-1.92-4.853-1.92-8 0-1.813.347-3.52 1.04-5.12.693-1.6 1.653-3 2.88-4.2 1.227-1.2 2.667-2.147 4.32-2.84 1.653-.693 3.44-1.04 5.36-1.04 1.6 0 3.013.213 4.24.64 1.227.427 2.267.88 3.12 1.36.96.587 1.84 1.253 2.64 2 .427-.8 1-1.547 1.72-2.24.72-.693 1.48-1.147 2.28-1.36h1.2c-.107.8-.187 1.6-.24 2.4a60.607 60.607 0 0 0-.12 2.36 75.69 75.69 0 0 0-.04 2.44c0 .907.013 1.8.04 2.68.027.88.067 1.693.12 2.44.053.853.133 1.68.24 2.48h-1.2c-1.227-4.427-2.933-7.8-5.12-10.12-2.187-2.32-4.88-3.48-8.08-3.48-2.613 0-4.8.907-6.56 2.72-1.76 1.813-2.64 4.24-2.64 7.28zm39.2 27.2c0 3.413.253 6.267.76 8.56s1.173 4.147 2 5.56c.827 1.413 1.76 2.413 2.8 3 1.04.587 2.12.88 3.24.88a9.724 9.724 0 0 0 3.92-.8 11.3 11.3 0 0 0 3.28-2.16c.96-.907 1.747-2 2.36-3.28a14.218 14.218 0 0 0 1.24-4.16h1.2a14.919 14.919 0 0 1-1.4 4.76c-.72 1.467-1.64 2.733-2.76 3.8a12.645 12.645 0 0 1-3.88 2.52c-1.467.613-3.053.92-4.76.92-2.027 0-3.947-.44-5.76-1.32-1.813-.88-3.427-2.16-4.84-3.84-1.413-1.68-2.533-3.733-3.36-6.16s-1.24-5.187-1.24-8.28c0-3.2.4-6.027 1.2-8.48.8-2.453 1.853-4.493 3.16-6.12 1.307-1.627 2.827-2.867 4.56-3.72A12.25 12.25 0 0 1 243.8 20c1.92 0 3.747.427 5.48 1.28 1.733.853 3.253 2.093 4.56 3.72 1.307 1.627 2.36 3.667 3.16 6.12.8 2.453 1.2 5.28 1.2 8.48h-21.6zm7.2-18.4c-.8 0-1.6.253-2.4.76-.8.507-1.547 1.4-2.24 2.68-.693 1.28-1.267 3-1.72 5.16-.453 2.16-.733 4.893-.84 8.2H251c-.107-3.307-.387-6.04-.84-8.2-.453-2.16-1.027-3.88-1.72-5.16-.693-1.28-1.44-2.173-2.24-2.68-.8-.507-1.6-.76-2.4-.76zM269 56V23.2l-4.8-1.2v-.8h11.2V26a11.376 11.376 0 0 1 2.16-2.96c.747-.747 1.707-1.44 2.88-2.08 1.173-.64 2.56-.96 4.16-.96s3.08.293 4.44.88c1.36.587 2.547 1.4 3.56 2.44s1.8 2.293 2.36 3.76c.56 1.467.84 3.107.84 4.92v24l4.8 1.2v.8H285v-.8l4.4-1.2V32c0-3.787-.6-6.467-1.8-8.04-1.2-1.573-2.6-2.36-4.2-2.36-1.333 0-2.48.373-3.44 1.12a13.644 13.644 0 0 0-2.48 2.48 18.163 18.163 0 0 0-2.08 3.6V56l4.4 1.2v.8h-15.6v-.8L269 56zm50.8 3.2c-1.707 0-3.173-.2-4.4-.6-1.227-.4-2.213-.867-2.96-1.4-.907-.587-1.653-1.253-2.24-2-.213.8-.653 1.547-1.32 2.24-.667.693-1.293 1.147-1.88 1.36h-1.2c.053-.693.107-1.413.16-2.16.053-.64.107-1.32.16-2.04.053-.72.08-1.453.08-2.2 0-.8-.027-1.6-.08-2.4a131.9 131.9 0 0 0-.16-2.16l-.16-2.24h1.2c1.013 3.84 2.56 6.8 4.64 8.88 2.08 2.08 4.533 3.12 7.36 3.12 2.24 0 4.067-.693 5.48-2.08 1.413-1.387 2.12-3.093 2.12-5.12 0-1.44-.493-2.693-1.48-3.76-.987-1.067-2.227-2.04-3.72-2.92a79.41 79.41 0 0 0-4.8-2.6 35.737 35.737 0 0 1-4.8-2.88c-1.493-1.067-2.733-2.32-3.72-3.76-.987-1.44-1.48-3.2-1.48-5.28 0-1.173.267-2.32.8-3.44a9.533 9.533 0 0 1 2.2-2.96c.933-.853 2.067-1.533 3.4-2.04 1.333-.507 2.8-.76 4.4-.76 1.387 0 2.6.213 3.64.64 1.04.427 1.933.88 2.68 1.36.8.587 1.493 1.253 2.08 2 .213-.8.653-1.547 1.32-2.24.667-.693 1.293-1.147 1.88-1.36h1.2a26.736 26.736 0 0 0-.24 2.16c-.053.64-.093 1.333-.12 2.08-.027.747-.04 1.467-.04 2.16 0 .8.013 1.613.04 2.44.027.827.067 1.56.12 2.2.053.747.133 1.467.24 2.16H329c-1.013-3.84-2.507-6.8-4.48-8.88-1.973-2.08-4.08-3.12-6.32-3.12-1.813 0-3.333.6-4.56 1.8-1.227 1.2-1.84 2.6-1.84 4.2 0 1.333.507 2.48 1.52 3.44s2.267 1.853 3.76 2.68a92.498 92.498 0 0 0 4.92 2.52 29.005 29.005 0 0 1 4.92 2.96 15.769 15.769 0 0 1 3.76 4c1.013 1.547 1.52 3.413 1.52 5.6 0 1.28-.307 2.547-.92 3.8a11.045 11.045 0 0 1-2.56 3.36c-1.093.987-2.4 1.773-3.92 2.36s-3.187.88-5 .88zm26-19.6c0 3.413.253 6.267.76 8.56s1.173 4.147 2 5.56c.827 1.413 1.76 2.413 2.8 3 1.04.587 2.12.88 3.24.88a9.724 9.724 0 0 0 3.92-.8 11.3 11.3 0 0 0 3.28-2.16c.96-.907 1.747-2 2.36-3.28a14.218 14.218 0 0 0 1.24-4.16h1.2a14.919 14.919 0 0 1-1.4 4.76c-.72 1.467-1.64 2.733-2.76 3.8a12.645 12.645 0 0 1-3.88 2.52c-1.467.613-3.053.92-4.76.92-2.027 0-3.947-.44-5.76-1.32-1.813-.88-3.427-2.16-4.84-3.84-1.413-1.68-2.533-3.733-3.36-6.16s-1.24-5.187-1.24-8.28c0-3.2.4-6.027 1.2-8.48.8-2.453 1.853-4.493 3.16-6.12 1.307-1.627 2.827-2.867 4.56-3.72A12.25 12.25 0 0 1 353 20c1.92 0 3.747.427 5.48 1.28 1.733.853 3.253 2.093 4.56 3.72 1.307 1.627 2.36 3.667 3.16 6.12.8 2.453 1.2 5.28 1.2 8.48h-21.6zm7.2-18.4c-.8 0-1.6.253-2.4.76-.8.507-1.547 1.4-2.24 2.68-.693 1.28-1.267 3-1.72 5.16-.453 2.16-.733 4.893-.84 8.2h14.4c-.107-3.307-.387-6.04-.84-8.2-.453-2.16-1.027-3.88-1.72-5.16-.693-1.28-1.44-2.173-2.24-2.68-.8-.507-1.6-.76-2.4-.76z"/>
</svg>